ffmpeg version 2.8.15 Copyright (c) 2000-2018 the FFmpeg developers
  built with gcc 4.8.5 (GCC) 20150623 (Red Hat 4.8.5-36)
  configuration: --prefix=/usr --bindir=/usr/bin --datadir=/usr/share/ffmpeg --incdir=/usr/include/ffmpeg --libdir=/usr/lib64 --mandir=/usr/share/man --arch=x86_64 --optflags='-O2 -g -pipe -Wall -Wp,-D_FORTIFY_SOURCE=2 -fexceptions -fstack-protector-strong --param=ssp-buffer-size=4 -grecord-gcc-switches -m64 -mtune=generic' --extra-ldflags='-Wl,-z,relro ' --enable-libopencore-amrnb --enable-libopencore-amrwb --enable-libvo-amrwbenc --enable-version3 --enable-bzlib --disable-crystalhd --enable-gnutls --enable-ladspa --enable-libass --enable-libcdio --enable-libdc1394 --enable-libfdk-aac --enable-nonfree --disable-indev=jack --enable-libfreetype --enable-libgsm --enable-libmp3lame --enable-openal --enable-libopenjpeg --enable-libopus --enable-libpulse --enable-libschroedinger --enable-libsoxr --enable-libspeex --enable-libtheora --enable-libvorbis --enable-libv4l2 --enable-libx264 --enable-libx265 --enable-libxvid --enable-x11grab --enable-avfilter --enable-avresample --enable-postproc --enable-pthreads --disable-static --enable-shared --enable-gpl --disable-debug --disable-stripping --shlibdir=/usr/lib64 --enable-runtime-cpudetect
  libavutil      54. 31.100 / 54. 31.100
  libavcodec     56. 60.100 / 56. 60.100
  libavformat    56. 40.101 / 56. 40.101
  libavdevice    56.  4.100 / 56.  4.100
  libavfilter     5. 40.101 /  5. 40.101
  libavresample   2.  1.  0 /  2.  1.  0
  libswscale      3.  1.101 /  3.  1.101
  libswresample   1.  2.101 /  1.  2.101
  libpostproc    53.  3.100 / 53.  3.100
[h264 @ 0x1ebe8e0] RTP: dropping old packet received too late
    Last message repeated 8 times
Input #0, rtsp, from 'rtsp://localhost.localdomain:5000/26895841.sdp':
  Metadata:
    title           : 26895841
  Duration: N/A, start: 0.000000, bitrate: N/A
    Stream #0:0: Audio: opus, 48000 Hz, mono, fltp
    Stream #0:1: Video: h264 (Constrained Baseline), yuv420p, 640x480, 90k tbr, 90k tbn, 180k tbc
[libx264 @ 0x2046e40] MB rate (108000000) > level limit (2073600)
[libx264 @ 0x2046e40] using cpu capabilities: MMX2 SSE2Fast SSSE3 SSE4.2 AVX AVX2 FMA3 LZCNT BMI2
[libx264 @ 0x2046e40] profile Constrained Baseline, level 5.2
[libx264 @ 0x2046e40] 264 - core 142 r2495 6a301b6 - H.264/MPEG-4 AVC codec - Copyleft 2003-2014 - http://www.videolan.org/x264.html - options: cabac=0 ref=1 deblock=0:0:0 analyse=0:0 me=dia subme=0 psy=1 psy_rd=1.00:0.00 mixed_ref=0 me_range=16 chroma_me=1 trellis=0 8x8dct=0 cqm=0 deadzone=21,11 fast_pskip=1 chroma_qp_offset=0 threads=4 lookahead_threads=4 sliced_threads=1 slices=4 nr=0 decimate=1 interlaced=0 bluray_compat=0 constrained_intra=0 bframes=0 weightp=0 keyint=250 keyint_min=25 scenecut=0 intra_refresh=0 rc=crf mbtree=0 crf=23.0 qcomp=0.60 qpmin=0 qpmax=69 qpstep=4 ip_ratio=1.40 aq=0
Output #0, flv, to 'rtmp://kms.ydjk5.com/live/26895841':
  Metadata:
    title           : 26895841
    encoder         : Lavf56.40.101
    Stream #0:0: Video: h264 (libx264) ([7][0][0][0] / 0x0007), yuv420p, 640x480, q=-1--1, 90k fps, 1k tbn, 90k tbc
    Metadata:
      encoder         : Lavc56.60.100 libx264
    Stream #0:1: Audio: aac (libfdk_aac) ([10][0][0][0] / 0x000A), 44100 Hz, mono, s16, 64 kb/s
    Metadata:
      encoder         : Lavc56.60.100 libfdk_aac
Stream mapping:
  Stream #0:1 -> #0:0 (h264 (native) -> h264 (libx264))
  Stream #0:0 -> #0:1 (opus (native) -> aac (libfdk_aac))
Press [q] to stop, [?] for help
[NULL @ 0x1ebe8e0] RTP: missed 5 packets
frame=   57 fps=0.0 q=21.0 size=     121kB time=00:00:02.25 bitrate= 438.4kbits/s    frame=   72 fps= 71 q=21.0 size=     146kB time=00:00:02.76 bitrate= 433.4kbits/s    frame=   87 fps= 57 q=18.0 size=     169kB time=00:00:03.25 bitrate= 425.8kbits/s    frame=  102 fps= 50 q=19.0 size=     184kB time=00:00:03.76 bitrate= 401.1kbits/s    frame=  118 fps= 46 q=21.0 size=     214kB time=00:00:04.27 bitrate= 410.8kbits/s    frame=  133 fps= 44 q=20.0 size=     242kB time=00:00:04.78 bitrate= 414.5kbits/s    frame=  148 fps= 42 q=18.0 size=     262kB time=00:00:05.29 bitrate= 404.7kbits/s    frame=  163 fps= 40 q=18.0 size=     278kB time=00:00:05.78 bitrate= 393.2kbits/s    frame=  179 fps= 39 q=19.0 size=     300kB time=00:00:06.29 bitrate= 390.8kbits/s    frame=  194 fps= 38 q=19.0 size=     319kB time=00:00:06.80 bitrate= 384.2kbits/s    frame=  209 fps= 37 q=21.0 size=     344kB time=00:00:07.31 bitrate= 384.8kbits/s    frame=  225 fps= 37 q=21.0 size=     372kB time=00:00:07.84 bitrate= 388.1kbits/s    frame=  239 fps= 36 q=21.0 size=     398kB time=00:00:08.36 bitrate= 390.0kbits/s    frame=  255 fps= 36 q=21.0 size=     445kB time=00:00:08.84 bitrate= 412.3kbits/s    frame=  270 fps= 35 q=18.0 size=     460kB time=00:00:09.35 bitrate= 402.6kbits/s    frame=  284 fps= 35 q=18.0 size=     476kB time=00:00:09.86 bitrate= 394.8kbits/s    frame=  300 fps= 35 q=20.0 size=     500kB time=00:00:10.37 bitrate= 394.5kbits/s    frame=  315 fps= 34 q=18.0 size=     519kB time=00:00:10.89 bitrate= 390.6kbits/s    frame=  330 fps= 34 q=17.0 size=     532kB time=00:00:11.40 bitrate= 382.5kbits/s    frame=  345 fps= 34 q=18.0 size=     545kB time=00:00:11.91 bitrate= 374.9kbits/s    frame=  360 fps= 34 q=18.0 size=     558kB time=00:00:12.39 bitrate= 368.4kbits/s    frame=  376 fps= 34 q=20.0 size=     574kB time=00:00:12.91 bitrate= 364.0kbits/s    frame=  391 fps= 33 q=19.0 size=     596kB time=00:00:13.42 bitrate= 363.7kbits/s    frame=  406 fps= 33 q=19.0 size=     615kB time=00:00:13.93 bitrate= 361.6kbits/s    frame=  421 fps= 33 q=19.0 size=     633kB time=00:00:14.44 bitrate= 359.2kbits/s    frame=  436 fps= 33 q=18.0 size=     647kB time=00:00:14.93 bitrate= 355.2kbits/s    frame=  451 fps= 33 q=18.0 size=     662kB time=00:00:15.44 bitrate= 351.3kbits/s    frame=  466 fps= 33 q=19.0 size=     677kB time=00:00:15.95 bitrate= 347.8kbits/s    frame=  482 fps= 33 q=19.0 size=     694kB time=00:00:16.46 bitrate= 345.3kbits/s    frame=  497 fps= 33 q=19.0 size=     714kB time=00:00:16.97 bitrate= 344.7kbits/s    frame=  512 fps= 33 q=18.0 size=     760kB time=00:00:17.48 bitrate= 356.2kbits/s    frame=  528 fps= 32 q=19.0 size=     780kB time=00:00:17.97 bitrate= 355.4kbits/s    frame=  542 fps= 32 q=17.0 size=     794kB time=00:00:18.50 bitrate= 351.5kbits/s    frame=  557 fps= 32 q=20.0 size=     810kB time=00:00:18.99 bitrate= 349.3kbits/s    frame=  573 fps= 32 q=19.0 size=     833kB time=00:00:19.50 bitrate= 349.9kbits/s    frame=  588 fps= 32 q=18.0 size=     848kB time=00:00:19.99 bitrate= 347.5kbits/s    frame=  603 fps= 32 q=18.0 size=     862kB time=00:00:20.50 bitrate= 344.4kbits/s    frame=  618 fps= 32 q=17.0 size=     875kB time=00:00:21.03 bitrate= 340.8kbits/s    frame=  633 fps= 32 q=19.0 size=     889kB time=00:00:21.54 bitrate= 337.9kbits/s    frame=  648 fps= 32 q=18.0 size=     904kB time=00:00:22.03 bitrate= 336.3kbits/s    frame=  663 fps= 32 q=19.0 size=     916kB time=00:00:22.52 bitrate= 333.3kbits/s    frame=  678 fps= 32 q=19.0 size=     933kB time=00:00:23.03 bitrate= 331.7kbits/s    frame=  694 fps= 32 q=19.0 size=     949kB time=00:00:23.54 bitrate= 330.1kbits/s    frame=  709 fps= 32 q=19.0 size=     962kB time=00:00:24.05 bitrate= 327.7kbits/s    frame=  724 fps= 32 q=18.0 size=     974kB time=00:00:24.59 bitrate= 324.6kbits/s    frame=  739 fps= 32 q=19.0 size=     988kB time=00:00:25.07 bitrate= 322.9kbits/s    frame=  755 fps= 32 q=20.0 size=    1033kB time=00:00:25.58 bitrate= 330.7kbits/s    frame=  770 fps= 32 q=18.0 size=    1044kB time=00:00:26.10 bitrate= 327.6kbits/s    frame=  785 fps= 32 q=17.0 size=    1056kB time=00:00:26.61 bitrate= 325.2kbits/s    frame=  801 fps= 32 q=18.0 size=    1073kB time=00:00:27.12 bitrate= 324.1kbits/s    frame=  815 fps= 31 q=18.0 size=    1085kB time=00:00:27.63 bitrate= 321.6kbits/s    frame=  831 fps= 31 q=18.0 size=    1097kB time=00:00:28.14 bitrate= 319.2kbits/s    frame=  846 fps= 31 q=19.0 size=    1109kB time=00:00:28.65 bitrate= 317.0kbits/s    frame=  861 fps= 31 q=19.0 size=    1134kB time=00:00:29.16 bitrate= 318.6kbits/s    frame=  877 fps= 31 q=18.0 size=    1153kB time=00:00:29.65 bitrate= 318.6kbits/s    frame=  892 fps= 31 q=21.0 size=    1179kB time=00:00:30.18 bitrate= 320.1kbits/s    frame=  907 fps= 31 q=20.0 size=    1203kB time=00:00:30.69 bitrate= 321.2kbits/s    frame=  922 fps= 31 q=18.0 size=    1223kB time=00:00:31.23 bitrate= 320.8kbits/s    frame=  937 fps= 31 q=19.0 size=    1243kB time=00:00:31.71 bitrate= 321.1kbits/s    frame=  953 fps= 31 q=21.0 size=    1272kB time=00:00:32.22 bitrate= 323.4kbits/s    frame=  968 fps= 31 q=21.0 size=    1301kB time=00:00:32.74 bitrate= 325.6kbits/s    frame=  983 fps= 31 q=19.0 size=    1329kB time=00:00:33.25 bitrate= 327.4kbits/s    frame=  999 fps= 31 q=19.0 size=    1343kB time=00:00:33.76 bitrate= 326.0kbits/s    frame= 1014 fps= 31 q=18.0 size=    1389kB time=00:00:34.27 bitrate= 331.9kbits/s    frame= 1029 fps= 31 q=19.0 size=    1406kB time=00:00:34.76 bitrate= 331.3kbits/s    frame= 1044 fps= 31 q=18.0 size=    1418kB time=00:00:35.27 bitrate= 329.4kbits/s    frame= 1059 fps= 31 q=18.0 size=    1431kB time=00:00:35.80 bitrate= 327.3kbits/s    frame= 1075 fps= 31 q=18.0 size=    1446kB time=00:00:36.29 bitrate= 326.4kbits/s    frame= 1090 fps= 31 q=19.0 size=    1459kB time=00:00:36.80 bitrate= 324.7kbits/s    frame= 1105 fps= 31 q=21.0 size=    1477kB time=00:00:37.29 bitrate= 324.4kbits/s    frame= 1120 fps= 31 q=20.0 size=    1502kB time=00:00:37.82 bitrate= 325.3kbits/s    frame= 1135 fps= 31 q=19.0 size=    1526kB time=00:00:38.31 bitrate= 326.2kbits/s    frame= 1150 fps= 31 q=21.0 size=    1551kB time=00:00:38.84 bitrate= 327.1kbits/s    frame= 1165 fps= 31 q=20.0 size=    1575kB time=00:00:39.33 bitrate= 328.1kbits/s    frame= 1181 fps= 31 q=19.0 size=    1602kB time=00:00:39.84 bitrate= 329.4kbits/s    frame= 1195 fps= 31 q=19.0 size=    1623kB time=00:00:40.33 bitrate= 329.7kbits/s    frame= 1211 fps= 31 q=18.0 size=    1641kB time=00:00:40.84 bitrate= 329.0kbits/s    frame= 1226 fps= 31 q=19.0 size=    1655kB time=00:00:41.33 bitrate= 328.0kbits/s    frame= 1240 fps= 31 q=20.0 size=    1674kB time=00:00:41.86 bitrate= 327.5kbits/s    frame= 1256 fps= 31 q=20.0 size=    1724kB time=00:00:42.35 bitrate= 333.4kbits/s    frame= 1271 fps= 31 q=19.0 size=    1741kB time=00:00:42.88 bitrate= 332.5kbits/s    frame= 1286 fps= 31 q=21.0 size=    1765kB time=00:00:43.39 bitrate= 333.1kbits/s    frame= 1301 fps= 31 q=20.0 size=    1790kB time=00:00:43.90 bitrate= 334.0kbits/s    frame= 1317 fps= 31 q=21.0 size=    1819kB time=00:00:44.39 bitrate= 335.7kbits/s    frame= 1332 fps= 31 q=22.0 size=    1848kB time=00:00:44.90 bitrate= 337.1kbits/s    frame= 1347 fps= 31 q=23.0 size=    1887kB time=00:00:45.41 bitrate= 340.3kbits/s    frame= 1362 fps= 31 q=23.0 size=    1920kB time=00:00:45.95 bitrate= 342.2kbits/s    frame= 1377 fps= 31 q=22.0 size=    1953kB time=00:00:46.44 bitrate= 344.5kbits/s    frame= 1392 fps= 31 q=23.0 size=    1989kB time=00:00:46.92 bitrate= 347.2kbits/s    frame= 1408 fps= 31 q=23.0 size=    2033kB time=00:00:47.43 bitrate= 351.1kbits/s    frame= 1422 fps= 31 q=23.0 size=    2072kB time=00:00:47.97 bitrate= 353.9kbits/s    frame= 1438 fps= 31 q=23.0 size=    2118kB time=00:00:48.46 bitrate= 358.1kbits/s    frame= 1454 fps= 31 q=23.0 size=    2165kB time=00:00:48.97 bitrate= 362.1kbits/s    frame= 1468 fps= 31 q=24.0 size=    2206kB time=00:00:49.50 bitrate= 365.0kbits/s    frame= 1484 fps= 31 q=24.0 size=    2252kB time=00:00:49.99 bitrate= 369.1kbits/s    frame= 1499 fps= 31 q=25.0 size=    2303kB time=00:00:50.50 bitrate= 373.6kbits/s    